<?xml version="1.0" encoding="UTF-8" standalone="no"?>
<svg xmlns="http://www.w3.org/2000/svg" xmlns:xlink="http://www.w3.org/1999/xlink" contentScriptType="application/ecmascript" contentStyleType="text/css" height="369px" preserveAspectRatio="none" style="width:823px;height:369px;" version="1.1" viewBox="0 0 823 369" width="823px" zoomAndPan="magnify"><defs/><g><!--MD5=[bece8b4c4229b3549b4a8159d27930ed]
class Scope--><rect codeLine="3" fill="#FEFECE" height="150.4375" id="Scope" style="stroke: #A80036; stroke-width: 1.5;" width="250" x="7" y="7"/><ellipse cx="109.25" cy="23" fill="#B4A7E5" rx="11" ry="11" style="stroke: #A80036; stroke-width: 1.0;"/><path d="M110.2031,19.7813 L111.9219,19.7813 C112.3125,19.7813 112.5,19.75 112.625,19.6719 C112.8906,19.5156 113.0313,19.2344 113.0313,18.9375 C113.0313,18.6719 112.9219,18.4063 112.6875,18.2344 C112.5156,18.125 112.375,18.0938 111.9219,18.0938 L106.7813,18.0938 C106.3438,18.0938 106.2188,18.1094 106.0625,18.2031 C105.8125,18.3594 105.6563,18.6563 105.6563,18.9375 C105.6563,19.2188 105.7969,19.4688 106.0156,19.6406 C106.1719,19.75 106.3594,19.7813 106.7813,19.7813 L108.5,19.7813 L108.5,26.2969 L106.7813,26.2969 C106.3438,26.2969 106.2188,26.3125 106.0625,26.4219 C105.8125,26.5781 105.6563,26.8594 105.6563,27.1563 C105.6563,27.4063 105.7969,27.6719 106.0156,27.8281 C106.1719,27.9531 106.375,28 106.7813,28 L111.9219,28 C112.6719,28 113.0313,27.7188 113.0313,27.1563 C113.0313,26.875 112.9219,26.625 112.6875,26.4531 C112.5156,26.3281 112.375,26.2969 111.9219,26.2969 L110.2031,26.2969 L110.2031,19.7813 Z "/><text fill="#000000" font-family="sans-serif" font-size="12" font-style="italic" lengthAdjust="spacingAndGlyphs" textLength="37" x="129.75" y="27.1543">Scope</text><line style="stroke: #A80036; stroke-width: 1.5;" x1="8" x2="256" y1="39" y2="39"/><ellipse cx="18" cy="50" fill="none" rx="3" ry="3" style="stroke: #038048; stroke-width: 1.0;"/><text fill="#000000" font-family="sans-serif" font-size="11" lengthAdjust="spacingAndGlyphs" textLength="32" x="27" y="53.2104">_: Var</text><line style="stroke: #A80036; stroke-width: 1.5;" x1="8" x2="256" y1="59.8047" y2="59.8047"/><ellipse cx="18" cy="70.8047" fill="#84BE84" rx="3" ry="3" style="stroke: #038048; stroke-width: 1.0;"/><text fill="#000000" font-family="sans-serif" font-size="11" font-weight="bold" lengthAdjust="spacingAndGlyphs" textLength="120" x="27" y="74.0151">varOf(String): Var</text><ellipse cx="18" cy="83.6094" fill="#84BE84" rx="3" ry="3" style="stroke: #038048; stroke-width: 1.0;"/><text fill="#000000" font-family="sans-serif" font-size="11" lengthAdjust="spacingAndGlyphs" textLength="120" x="27" y="86.8198">atomOf(String): Atom</text><ellipse cx="18" cy="96.4141" fill="#84BE84" rx="3" ry="3" style="stroke: #038048; stroke-width: 1.0;"/><text fill="#000000" font-family="sans-serif" font-size="11" lengthAdjust="spacingAndGlyphs" textLength="224" x="27" y="99.6245">structOf(String, Iterable&lt;Term&gt;): Struct</text><ellipse cx="18" cy="109.2188" fill="#84BE84" rx="3" ry="3" style="stroke: #038048; stroke-width: 1.0;"/><text fill="#000000" font-family="sans-serif" font-size="11" lengthAdjust="spacingAndGlyphs" textLength="126" x="27" y="112.4292">emptyList(): EmptyList</text><ellipse cx="18" cy="122.0234" fill="#84BE84" rx="3" ry="3" style="stroke: #038048; stroke-width: 1.0;"/><text fill="#000000" font-family="sans-serif" font-size="11" lengthAdjust="spacingAndGlyphs" textLength="155" x="27" y="125.2339">listOf(Iterable&lt;Term&gt;): List</text><ellipse cx="18" cy="134.8281" fill="#84BE84" rx="3" ry="3" style="stroke: #038048; stroke-width: 1.0;"/><text fill="#000000" font-family="sans-serif" font-size="11" lengthAdjust="spacingAndGlyphs" textLength="119" x="27" y="138.0386">numOf(Double): Real</text><ellipse cx="18" cy="147.6328" fill="#84BE84" rx="3" ry="3" style="stroke: #038048; stroke-width: 1.0;"/><text fill="#000000" font-family="sans-serif" font-size="11" lengthAdjust="spacingAndGlyphs" textLength="108" x="27" y="150.8433">numOf(Int): Integer</text><!--MD5=[ea6b469652fc5da9d28c2b9db90d0c87]
class Prolog--><rect codeLine="14" fill="#FEFECE" height="86.4141" id="Prolog" style="stroke: #A80036; stroke-width: 1.5;" width="239" x="292.5" y="39"/><ellipse cx="389.25" cy="55" fill="#B4A7E5" rx="11" ry="11" style="stroke: #A80036; stroke-width: 1.0;"/><path d="M390.2031,51.7813 L391.9219,51.7813 C392.3125,51.7813 392.5,51.75 392.625,51.6719 C392.8906,51.5156 393.0313,51.2344 393.0313,50.9375 C393.0313,50.6719 392.9219,50.4063 392.6875,50.2344 C392.5156,50.125 392.375,50.0938 391.9219,50.0938 L386.7813,50.0938 C386.3438,50.0938 386.2188,50.1094 386.0625,50.2031 C385.8125,50.3594 385.6563,50.6563 385.6563,50.9375 C385.6563,51.2188 385.7969,51.4688 386.0156,51.6406 C386.1719,51.75 386.3594,51.7813 386.7813,51.7813 L388.5,51.7813 L388.5,58.2969 L386.7813,58.2969 C386.3438,58.2969 386.2188,58.3125 386.0625,58.4219 C385.8125,58.5781 385.6563,58.8594 385.6563,59.1563 C385.6563,59.4063 385.7969,59.6719 386.0156,59.8281 C386.1719,59.9531 386.375,60 386.7813,60 L391.9219,60 C392.6719,60 393.0313,59.7188 393.0313,59.1563 C393.0313,58.875 392.9219,58.625 392.6875,58.4531 C392.5156,58.3281 392.375,58.2969 391.9219,58.2969 L390.2031,58.2969 L390.2031,51.7813 Z "/><text fill="#000000" font-family="sans-serif" font-size="12" font-style="italic" lengthAdjust="spacingAndGlyphs" textLength="37" x="409.75" y="59.1543">Prolog</text><line style="stroke: #A80036; stroke-width: 1.5;" x1="293.5" x2="530.5" y1="71" y2="71"/><line style="stroke: #A80036; stroke-width: 1.5;" x1="293.5" x2="530.5" y1="79" y2="79"/><ellipse cx="303.5" cy="90" fill="#84BE84" rx="3" ry="3" style="stroke: #038048; stroke-width: 1.0;"/><text fill="#000000" font-family="sans-serif" font-size="11" font-style="italic" font-weight="bold" lengthAdjust="spacingAndGlyphs" textLength="24" x="312.5" y="93.2104">Any</text><text fill="#000000" font-family="sans-serif" font-size="11" font-weight="bold" lengthAdjust="spacingAndGlyphs" textLength="108" x="336.5" y="93.2104">.toTerm(): Term</text><ellipse cx="303.5" cy="102.8047" fill="#84BE84" rx="3" ry="3" style="stroke: #038048; stroke-width: 1.0;"/><text fill="#000000" font-family="sans-serif" font-size="11" font-style="italic" lengthAdjust="spacingAndGlyphs" textLength="33" x="312.5" y="106.0151">String</text><text fill="#000000" font-family="sans-serif" font-size="11" lengthAdjust="spacingAndGlyphs" textLength="180" x="345.5" y="106.0151">.invoke(Any, vararg Any): Struct</text><ellipse cx="303.5" cy="115.6094" fill="#84BE84" rx="3" ry="3" style="stroke: #038048; stroke-width: 1.0;"/><text fill="#000000" font-family="sans-serif" font-size="11" font-style="italic" lengthAdjust="spacingAndGlyphs" textLength="66" x="312.5" y="118.8198">Substitution</text><text fill="#000000" font-family="sans-serif" font-size="11" lengthAdjust="spacingAndGlyphs" textLength="106" x="378.5" y="118.8198">.get(String): Term?</text><!--MD5=[5b972c1b71844b83c4bab8592ab0d688]
class PrologWithUnification--><rect codeLine="20" fill="#FEFECE" height="86.4141" id="PrologWithUnification" style="stroke: #A80036; stroke-width: 1.5;" width="240" x="567" y="39"/><ellipse cx="618.25" cy="55" fill="#B4A7E5" rx="11" ry="11" style="stroke: #A80036; stroke-width: 1.0;"/><path d="M619.2031,51.7813 L620.9219,51.7813 C621.3125,51.7813 621.5,51.75 621.625,51.6719 C621.8906,51.5156 622.0313,51.2344 622.0313,50.9375 C622.0313,50.6719 621.9219,50.4063 621.6875,50.2344 C621.5156,50.125 621.375,50.0938 620.9219,50.0938 L615.7813,50.0938 C615.3438,50.0938 615.2188,50.1094 615.0625,50.2031 C614.8125,50.3594 614.6563,50.6563 614.6563,50.9375 C614.6563,51.2188 614.7969,51.4688 615.0156,51.6406 C615.1719,51.75 615.3594,51.7813 615.7813,51.7813 L617.5,51.7813 L617.5,58.2969 L615.7813,58.2969 C615.3438,58.2969 615.2188,58.3125 615.0625,58.4219 C614.8125,58.5781 614.6563,58.8594 614.6563,59.1563 C614.6563,59.4063 614.7969,59.6719 615.0156,59.8281 C615.1719,59.9531 615.375,60 615.7813,60 L620.9219,60 C621.6719,60 622.0313,59.7188 622.0313,59.1563 C622.0313,58.875 621.9219,58.625 621.6875,58.4531 C621.5156,58.3281 621.375,58.2969 620.9219,58.2969 L619.2031,58.2969 L619.2031,51.7813 Z "/><text fill="#000000" font-family="sans-serif" font-size="12" font-style="italic" lengthAdjust="spacingAndGlyphs" textLength="129" x="638.75" y="59.1543">PrologWithUnification</text><line style="stroke: #A80036; stroke-width: 1.5;" x1="568" x2="806" y1="71" y2="71"/><line style="stroke: #A80036; stroke-width: 1.5;" x1="568" x2="806" y1="79" y2="79"/><ellipse cx="578" cy="90" fill="#84BE84" rx="3" ry="3" style="stroke: #038048; stroke-width: 1.0;"/><text fill="#000000" font-family="sans-serif" font-size="11" font-style="italic" font-weight="bold" lengthAdjust="spacingAndGlyphs" textLength="24" x="587" y="93.2104">Any</text><text fill="#000000" font-family="sans-serif" font-size="11" font-weight="bold" lengthAdjust="spacingAndGlyphs" textLength="190" x="611" y="93.2104">.mguWith(Any): Substitution</text><ellipse cx="578" cy="102.8047" fill="#84BE84" rx="3" ry="3" style="stroke: #038048; stroke-width: 1.0;"/><text fill="#000000" font-family="sans-serif" font-size="11" font-style="italic" lengthAdjust="spacingAndGlyphs" textLength="22" x="587" y="106.0151">Any</text><text fill="#000000" font-family="sans-serif" font-size="11" lengthAdjust="spacingAndGlyphs" textLength="136" x="609" y="106.0151">.matches(Any): Boolean</text><ellipse cx="578" cy="115.6094" fill="#84BE84" rx="3" ry="3" style="stroke: #038048; stroke-width: 1.0;"/><text fill="#000000" font-family="sans-serif" font-size="11" font-style="italic" lengthAdjust="spacingAndGlyphs" textLength="22" x="587" y="118.8198">Any</text><text fill="#000000" font-family="sans-serif" font-size="11" lengthAdjust="spacingAndGlyphs" textLength="129" x="609" y="118.8198">.unifyWith(Any): Term?</text><!--MD5=[25dc48c4a24cf8fdeaf2765293f5e23b]
class PrologWithTheories--><rect codeLine="26" fill="#FEFECE" height="112.0234" id="PrologWithTheories" style="stroke: #A80036; stroke-width: 1.5;" width="251" x="561.5" y="240.5"/><ellipse cx="625.25" cy="256.5" fill="#B4A7E5" rx="11" ry="11" style="stroke: #A80036; stroke-width: 1.0;"/><path d="M626.2031,253.2813 L627.9219,253.2813 C628.3125,253.2813 628.5,253.25 628.625,253.1719 C628.8906,253.0156 629.0313,252.7344 629.0313,252.4375 C629.0313,252.1719 628.9219,251.9063 628.6875,251.7344 C628.5156,251.625 628.375,251.5938 627.9219,251.5938 L622.7813,251.5938 C622.3438,251.5938 622.2188,251.6094 622.0625,251.7031 C621.8125,251.8594 621.6563,252.1563 621.6563,252.4375 C621.6563,252.7188 621.7969,252.9688 622.0156,253.1406 C622.1719,253.25 622.3594,253.2813 622.7813,253.2813 L624.5,253.2813 L624.5,259.7969 L622.7813,259.7969 C622.3438,259.7969 622.2188,259.8125 622.0625,259.9219 C621.8125,260.0781 621.6563,260.3594 621.6563,260.6563 C621.6563,260.9063 621.7969,261.1719 622.0156,261.3281 C622.1719,261.4531 622.375,261.5 622.7813,261.5 L627.9219,261.5 C628.6719,261.5 629.0313,261.2188 629.0313,260.6563 C629.0313,260.375 628.9219,260.125 628.6875,259.9531 C628.5156,259.8281 628.375,259.7969 627.9219,259.7969 L626.2031,259.7969 L626.2031,253.2813 Z "/><text fill="#000000" font-family="sans-serif" font-size="12" font-style="italic" lengthAdjust="spacingAndGlyphs" textLength="115" x="645.75" y="260.6543">PrologWithTheories</text><line style="stroke: #A80036; stroke-width: 1.5;" x1="562.5" x2="811.5" y1="272.5" y2="272.5"/><line style="stroke: #A80036; stroke-width: 1.5;" x1="562.5" x2="811.5" y1="280.5" y2="280.5"/><ellipse cx="572.5" cy="291.5" fill="#84BE84" rx="3" ry="3" style="stroke: #038048; stroke-width: 1.0;"/><text fill="#000000" font-family="sans-serif" font-size="11" lengthAdjust="spacingAndGlyphs" textLength="184" x="581.5" y="294.7104">theoryOf(vararg Clause): Theory</text><ellipse cx="572.5" cy="304.3047" fill="#84BE84" rx="3" ry="3" style="stroke: #038048; stroke-width: 1.0;"/><text fill="#000000" font-family="sans-serif" font-size="11" lengthAdjust="spacingAndGlyphs" textLength="225" x="581.5" y="307.5151">rule(PrologWithTheories.() -&gt; Any): Rule</text><ellipse cx="572.5" cy="317.1094" fill="#84BE84" rx="3" ry="3" style="stroke: #038048; stroke-width: 1.0;"/><text fill="#000000" font-family="sans-serif" font-size="11" lengthAdjust="spacingAndGlyphs" textLength="222" x="581.5" y="320.3198">fact(PrologWithTheories.() -&gt; Any): Fact</text><ellipse cx="572.5" cy="329.9141" fill="#84BE84" rx="3" ry="3" style="stroke: #038048; stroke-width: 1.0;"/><text fill="#000000" font-family="sans-serif" font-size="11" lengthAdjust="spacingAndGlyphs" textLength="117" x="581.5" y="333.1245">and(Any, Any): Term</text><ellipse cx="572.5" cy="342.7188" fill="#84BE84" rx="3" ry="3" style="stroke: #038048; stroke-width: 1.0;"/><text fill="#000000" font-family="sans-serif" font-size="11" lengthAdjust="spacingAndGlyphs" textLength="107" x="581.5" y="345.9292">or(Any, Any): Term</text><!--MD5=[6c154b0c13723ced5ac9ddde3e67c082]
class PrologWithResolution--><rect codeLine="34" fill="#FEFECE" height="124.8281" id="PrologWithResolution" style="stroke: #A80036; stroke-width: 1.5;" width="241" x="285.5" y="234"/><ellipse cx="338.25" cy="250" fill="#B4A7E5" rx="11" ry="11" style="stroke: #A80036; stroke-width: 1.0;"/><path d="M339.2031,246.7813 L340.9219,246.7813 C341.3125,246.7813 341.5,246.75 341.625,246.6719 C341.8906,246.5156 342.0313,246.2344 342.0313,245.9375 C342.0313,245.6719 341.9219,245.4063 341.6875,245.2344 C341.5156,245.125 341.375,245.0938 340.9219,245.0938 L335.7813,245.0938 C335.3438,245.0938 335.2188,245.1094 335.0625,245.2031 C334.8125,245.3594 334.6563,245.6563 334.6563,245.9375 C334.6563,246.2188 334.7969,246.4688 335.0156,246.6406 C335.1719,246.75 335.3594,246.7813 335.7813,246.7813 L337.5,246.7813 L337.5,253.2969 L335.7813,253.2969 C335.3438,253.2969 335.2188,253.3125 335.0625,253.4219 C334.8125,253.5781 334.6563,253.8594 334.6563,254.1563 C334.6563,254.4063 334.7969,254.6719 335.0156,254.8281 C335.1719,254.9531 335.375,255 335.7813,255 L340.9219,255 C341.6719,255 342.0313,254.7188 342.0313,254.1563 C342.0313,253.875 341.9219,253.625 341.6875,253.4531 C341.5156,253.3281 341.375,253.2969 340.9219,253.2969 L339.2031,253.2969 L339.2031,246.7813 Z "/><text fill="#000000" font-family="sans-serif" font-size="12" font-style="italic" lengthAdjust="spacingAndGlyphs" textLength="127" x="358.75" y="254.1543">PrologWithResolution</text><line style="stroke: #A80036; stroke-width: 1.5;" x1="286.5" x2="525.5" y1="266" y2="266"/><ellipse cx="296.5" cy="277" fill="#84BE84" rx="3" ry="3" style="stroke: #038048; stroke-width: 1.0;"/><text fill="#000000" font-family="sans-serif" font-size="11" font-weight="bold" lengthAdjust="spacingAndGlyphs" textLength="215" x="305.5" y="280.2104">solve(Any): Sequence&lt;Solution&gt;</text><ellipse cx="296.5" cy="289.8047" fill="#84BE84" rx="3" ry="3" style="stroke: #038048; stroke-width: 1.0;"/><text fill="#000000" font-family="sans-serif" font-size="11" lengthAdjust="spacingAndGlyphs" textLength="65" x="305.5" y="293.0151">solverOf(...)</text><line style="stroke: #A80036; stroke-width: 1.0;" x1="286.5" x2="525.5" y1="299.6094" y2="299.6094"/><ellipse cx="296.5" cy="310.6094" fill="#84BE84" rx="3" ry="3" style="stroke: #038048; stroke-width: 1.0;"/><text fill="#000000" font-family="sans-serif" font-size="11" lengthAdjust="spacingAndGlyphs" textLength="145" x="305.5" y="313.8198">member(Any, Any): Term</text><ellipse cx="296.5" cy="323.4141" fill="#84BE84" rx="3" ry="3" style="stroke: #038048; stroke-width: 1.0;"/><text fill="#000000" font-family="sans-serif" font-size="11" lengthAdjust="spacingAndGlyphs" textLength="105" x="305.5" y="326.6245">is(Any, Any): Term</text><ellipse cx="296.5" cy="336.2188" fill="none" rx="3" ry="3" style="stroke: #038048; stroke-width: 1.0;"/><text fill="#000000" font-family="sans-serif" font-size="11" lengthAdjust="spacingAndGlyphs" textLength="42" x="305.5" y="339.4292">!: Atom</text><ellipse cx="296.5" cy="349.0234" fill="none" rx="3" ry="3" style="stroke: #038048; stroke-width: 1.0;"/><text fill="#000000" font-family="sans-serif" font-size="11" lengthAdjust="spacingAndGlyphs" textLength="54" x="305.5" y="352.2339">fail: Atom</text><!--MD5=[cb758e5290704759b3c84ab85b14f5f4]
reverse link Scope to Prolog--><path codeLine="44" d="M277.506,82 C282.437,82 287.368,82 292.298,82 " fill="none" id="Scope&lt;-Prolog" style="stroke: #A80036; stroke-width: 1.0;"/><polygon fill="none" points="277.234,89,257.234,82,277.234,75,277.234,89" style="stroke: #A80036; stroke-width: 1.0;"/><!--MD5=[8048a6d85bde5238a25e5c47ab9d5537]
reverse link Prolog to PrologWithUnification--><path codeLine="46" d="M551.598,82 C556.644,82 561.69,82 566.736,82 " fill="none" id="Prolog&lt;-PrologWithUnification" style="stroke: #A80036; stroke-width: 1.0;"/><polygon fill="none" points="551.507,89,531.507,82,551.507,75,551.507,89" style="stroke: #A80036; stroke-width: 1.0;"/><!--MD5=[34cb1e6572dc70e43a722cef75704479]
reverse link PrologWithUnification to PrologWithTheories--><path codeLine="48" d="M687,145.494 C687,175.595 687,211.373 687,240.436 " fill="none" id="PrologWithUnification&lt;-PrologWithTheories" style="stroke: #A80036; stroke-width: 1.0;"/><polygon fill="none" points="680,145.237,687,125.237,694,145.237,680,145.237" style="stroke: #A80036; stroke-width: 1.0;"/><text fill="#000000" font-family="sans-serif" font-size="13" lengthAdjust="spacingAndGlyphs" textLength="52" x="688" y="200.0669">extends</text><!--MD5=[467f11845ece4ee6d3f7a8ecfb2d7e91]
link PrologWithResolution to PrologWithTheories--><path codeLine="50" d="M526.742,296.5 C531.628,296.5 536.514,296.5 541.4,296.5 " fill="none" id="PrologWithResolution-&gt;PrologWithTheories" style="stroke: #A80036; stroke-width: 1.0;"/><polygon fill="none" points="541.486,289.4999,561.486,296.5,541.486,303.4999,541.486,289.4999" style="stroke: #A80036; stroke-width: 1.0;"/><!--MD5=[2481d313c2aed39418628709ffe06ba2]
@startuml
skinparam shadowing false

interface Scope {
    + _: Var
    + **varOf(String): Var**
    + atomOf(String): Atom
    + structOf(String, Iterable<Term>): Struct
    + emptyList(): EmptyList
    + listOf(Iterable<Term>): List
    + numOf(Double): Real
    + numOf(Int): Integer
}

interface Prolog {
    + **//Any//.toTerm(): Term**
    + //String//.invoke(Any, vararg Any): Struct
    + //Substitution//.get(String): Term?
}

interface PrologWithUnification {
    + **//Any//.mguWith(Any): Substitution**
    + //Any//.matches(Any): Boolean
    + //Any//.unifyWith(Any): Term?
}

interface PrologWithTheories {
    + theoryOf(vararg Clause): Theory
    + rule(PrologWithTheories.() -> Any): Rule
    + fact(PrologWithTheories.() -> Any): Fact
    + and(Any, Any): Term
    + or(Any, Any): Term
}

interface PrologWithResolution {
    + **solve(Any): Sequence<Solution>**
    + solverOf(...)
- - -
    + member(Any, Any): Term
    + is(Any, Any): Term
    + !: Atom
    + fail: Atom
}

Scope <|-right- Prolog

Prolog <|-right- PrologWithUnification

PrologWithUnification <|-down- PrologWithTheories: extends

PrologWithTheories <|-left- PrologWithResolution
@enduml

PlantUML version 1.2020.16beta3(Unknown compile time)
(GPL source distribution)
Java Runtime: Java(TM) SE Runtime Environment
JVM: Java HotSpot(TM) 64-Bit Server VM
Default Encoding: UTF-8
Language: en
Country: US
--></g></svg>